<svg width="481" height="50" viewBox="0 0 481 50" fill="none" xmlns="http://www.w3.org/2000/svg">
<path d="M0.0840049 33.72H11.988C13.7373 33.72 14.612 33.2507 14.612 32.312C14.612 31.288 13.7373 30.008 11.988 28.472L4.05201 19.192C2.85734 17.7413 1.89734 16.184 1.172 14.52C0.446672 12.856 0.0840049 11.256 0.0840049 9.72C0.0840049 7.37333 0.894672 5.41066 2.51601 3.832C4.35067 2.08266 7.06001 1.03733 10.644 0.695999H23.892L26.516 9.912H15.956C13.908 9.912 12.884 10.488 12.884 11.64C12.884 12.92 14.356 14.9893 17.3 17.848L25.236 27.128C26.26 28.3653 27.028 29.6027 27.54 30.84C28.052 32.0773 28.308 33.208 28.308 34.232C28.308 36.7067 27.156 38.84 24.852 40.632C22.804 42.2107 20.7133 43 18.58 43H2.708L0.0840049 33.72ZM46.5705 43L34.6665 0.695999H46.5705L53.1625 28.472L59.8185 0.695999H71.7225L59.8185 43H46.5705ZM81.123 43V11.256H91.747V21.816C93.8803 20.7493 95.9497 19.3413 97.955 17.592C100.387 15.4587 101.603 13.752 101.603 12.472C101.603 11.704 101.134 11.0853 100.195 10.616C99.2563 10.1467 97.763 9.912 95.715 9.912H78.499L81.123 0.695999H96.995C101.774 0.695999 105.507 1.464 108.195 3C111.31 4.792 112.867 7.544 112.867 11.256C112.867 13.688 111.864 16.0987 109.859 18.488C109.39 19.0853 107.32 21.0907 103.651 24.504C105.144 27.448 107 30.52 109.219 33.72C111.736 37.304 114.275 40.3973 116.835 43L107.427 49.528C104.014 45.432 100.792 40.7387 97.763 35.448C95.331 31.1813 93.3257 27.0853 91.747 23.16V43H81.123ZM367.222 43V0.695999H377.782V33.72H393.654L391.03 43H367.222ZM407.084 48.312C405.206 45.4533 403.777 42.808 402.796 40.376C401.26 36.536 400.492 32.568 400.492 28.472C400.492 20.3653 402.412 13.9227 406.252 9.144C410.774 3.512 417.665 0.695999 426.924 0.695999H433.58L436.204 9.912H428.268C424.342 9.912 420.716 11.0213 417.388 13.24C414.06 15.4587 412.396 17.8907 412.396 20.536H424.3V11.256H434.86V43H424.3V29.752H411.052C411.052 31.5867 411.606 33.784 412.716 36.344C413.654 38.5627 414.87 40.7813 416.364 43L407.084 48.312ZM445.635 43V11.256H456.259V33.72H464.195C466.542 33.72 467.715 33.144 467.715 31.992C467.715 30.9253 466.713 29.304 464.707 27.128C462.915 25.208 460.526 23.0107 457.539 20.536C459.203 19.4693 460.889 18.1253 462.595 16.504C464.686 14.4987 465.731 12.984 465.731 11.96C465.731 11.4053 465.369 10.936 464.643 10.552C463.961 10.1253 462.915 9.912 461.507 9.912H443.011L445.635 0.695999H464.195C468.846 0.695999 472.195 1.42133 474.243 2.872C476.334 4.28 477.379 6.62666 477.379 9.912C477.379 12.3867 476.782 14.4773 475.587 16.184C474.606 17.592 473.006 19.0427 470.787 20.536C473.859 22.84 476.078 24.8667 477.443 26.616C479.193 28.8773 480.067 31.2453 480.067 33.72C480.067 37.5173 479.022 40.056 476.931 41.336C475.139 42.4453 471.769 43 466.819 43H445.635Z" fill="black"/>
<path d="M163.598 9.912C161.166 9.912 159.246 10.7867 157.838 12.536C156.472 14.2427 155.79 16.3547 155.79 18.872C155.79 22.7973 157.112 26.296 159.758 29.368C162.744 32.824 166.606 34.552 171.342 34.552L172.814 34.424L170.062 43.832C162.339 43.832 156.195 41.336 151.63 36.344C147.278 31.5653 145.102 25.4 145.102 17.848C145.102 12.088 146.552 7.736 149.454 4.792C152.184 2.06133 156.024 0.695999 160.974 0.695999L170.318 0.887997L172.878 9.912H163.598Z" fill="#391063"/>
<path d="M198.18 0.0559998C205.391 0.0559998 210.468 1.80533 213.412 5.304C215.631 7.90667 216.74 11.6613 216.74 16.568C216.74 23.5653 215.375 29.5813 212.644 34.616C209.316 40.76 204.601 43.832 198.5 43.832C192.441 43.832 187.663 40.7813 184.164 34.68C181.177 29.4747 179.684 23.4373 179.684 16.568C179.684 11.704 180.772 7.97067 182.948 5.368C185.935 1.82667 191.012 0.0559998 198.18 0.0559998ZM190.244 20.536L190.18 20.792C190.18 24.632 190.991 27.9173 192.612 30.648C194.276 33.3787 196.132 34.744 198.18 34.744C200.185 34.744 201.999 33.3787 203.62 30.648C205.284 27.9173 206.116 24.632 206.116 20.792V20.536C206.116 17.848 205.625 15.5013 204.644 13.496C203.279 10.7227 201.209 9.336 198.436 9.336C195.62 9.336 193.465 10.7013 191.972 13.432C190.82 15.5227 190.244 17.8907 190.244 20.536Z" fill="#053600"/>
<path d="M223.517 43V0.695999H234.077V33.72H249.949L247.325 43H223.517Z" fill="#B51515"/>
<path d="M275.283 0.0559998C282.493 0.0559998 287.571 1.80533 290.515 5.304C292.733 7.90667 293.843 11.6613 293.843 16.568C293.843 23.5653 292.477 29.5813 289.747 34.616C286.419 40.76 281.704 43.832 275.603 43.832C269.544 43.832 264.765 40.7813 261.267 34.68C258.28 29.4747 256.787 23.4373 256.787 16.568C256.787 11.704 257.875 7.97067 260.051 5.368C263.037 1.82667 268.115 0.0559998 275.283 0.0559998ZM267.347 20.536L267.283 20.792C267.283 24.632 268.093 27.9173 269.715 30.648C271.379 33.3787 273.235 34.744 275.283 34.744C277.288 34.744 279.101 33.3787 280.723 30.648C282.387 27.9173 283.219 24.632 283.219 20.792V20.536C283.219 17.848 282.728 15.5013 281.747 13.496C280.381 10.7227 278.312 9.336 275.539 9.336C272.723 9.336 270.568 10.7013 269.075 13.432C267.923 15.5227 267.347 17.8907 267.347 20.536Z" fill="#095D9A"/>
<path d="M303.243 43V11.256H313.867V21.816C316 20.7493 318.07 19.3413 320.075 17.592C322.507 15.4587 323.723 13.752 323.723 12.472C323.723 11.704 323.254 11.0853 322.315 10.616C321.376 10.1467 319.883 9.912 317.835 9.912H300.619L303.243 0.695999H319.115C323.894 0.695999 327.627 1.464 330.315 3C333.43 4.792 334.987 7.544 334.987 11.256C334.987 13.688 333.984 16.0987 331.979 18.488C331.51 19.0853 329.44 21.0907 325.771 24.504C327.264 27.448 329.12 30.52 331.339 33.72C333.856 37.304 336.395 40.3973 338.955 43L329.547 49.528C326.134 45.432 322.912 40.7387 319.883 35.448C317.451 31.1813 315.446 27.0853 313.867 23.16V43H303.243Z" fill="#C87335"/>
</svg>
